<?xml version="1.0" standalone="no"?>
<!DOCTYPE svg PUBLIC "-//W3C//DTD SVG 20010904//EN"
 "http://www.w3.org/TR/2001/REC-SVG-20010904/DTD/svg10.dtd">
<svg version="1.0" xmlns="http://www.w3.org/2000/svg"
 width="234.000000pt" height="234.000000pt" viewBox="0 0 234.000000 234.000000"
 preserveAspectRatio="xMidYMid meet">
<metadata>
Created by potrace 1.14, written by Peter Selinger 2001-2017
</metadata>
<g transform="translate(0.000000,234.000000) scale(0.100000,-0.100000)"
fill="#000000" stroke="none">
<path d="M773 2231 c-29 -8 -85 -59 -78 -71 4 -6 2 -10 -4 -10 -5 0 -10 -8
-11 -17 -3 -66 -6 -93 -12 -98 -4 -4 -1 -23 6 -43 7 -21 11 -42 9 -47 -5 -16
53 -35 66 -22 6 6 11 7 11 1 0 -8 15 -16 75 -39 11 -5 23 -7 28 -7 10 3 11 7
-28 -129 -33 -116 -51 -151 -66 -128 -3 6 -10 10 -15 9 -8 -1 -73 8 -114 16
-26 6 -164 5 -190 0 -27 -6 -84 -62 -76 -75 3 -4 -1 -30 -8 -57 -7 -27 -12
-69 -11 -94 0 -25 -4 -48 -10 -52 -6 -5 -5 -8 3 -8 8 0 10 -5 5 -12 -4 -7 -9
-80 -10 -162 -1 -82 -4 -155 -7 -162 -5 -13 20 -29 41 -25 9 1 11 -10 7 -36
-3 -21 -7 -77 -9 -126 -1 -48 -5 -90 -8 -93 -3 -3 -3 -12 -1 -19 3 -7 0 -16
-5 -20 -6 -3 -8 -12 -4 -18 4 -7 8 -16 8 -22 0 -5 6 -10 13 -9 39 3 45 5 39
10 -3 3 7 18 22 33 16 14 49 58 75 96 25 39 55 81 66 93 11 13 20 30 20 38 0
8 4 14 9 14 23 0 19 33 -6 56 -23 21 -28 35 -31 90 -2 35 -7 64 -11 64 -4 0
-6 17 -3 38 3 36 4 49 1 75 -1 6 2 35 6 62 4 28 8 56 8 63 1 17 13 15 63 -13
24 -13 44 -23 44 -21 0 10 158 -74 163 -86 2 -7 0 -23 -4 -35 -5 -13 -4 -25 2
-29 6 -3 6 -10 1 -17 -12 -16 -67 -180 -82 -246 -17 -72 -20 -177 -7 -215 5
-17 38 -57 71 -89 98 -93 106 -101 106 -114 0 -7 5 -13 10 -13 6 0 10 -6 10
-14 0 -8 4 -16 8 -18 5 -2 22 -24 40 -49 39 -58 101 -122 142 -145 27 -17 47
-47 42 -66 -3 -11 32 -27 74 -34 41 -6 114 -48 114 -65 0 -5 4 -8 9 -5 5 3 14
-1 21 -9 14 -16 75 -21 85 -6 3 5 0 15 -7 23 -14 14 -58 104 -57 114 0 4 -4
10 -11 14 -6 4 -13 19 -16 33 -2 15 -9 39 -15 54 -6 16 -13 37 -15 48 -5 24
-37 70 -50 71 -5 0 -22 6 -39 13 -16 7 -31 12 -32 12 -13 -2 -173 159 -173
174 0 3 -12 17 -28 32 -105 105 -116 131 -86 200 29 65 33 77 49 132 17 60 38
97 69 122 66 53 108 117 120 184 8 41 26 65 51 66 34 2 37 3 59 15 16 10 18
23 17 100 -1 83 -7 166 -11 172 -2 2 -3 44 -1 63 1 7 11 9 29 4 15 -4 53 -9
84 -10 51 -2 142 -28 204 -57 12 -6 27 -22 34 -36 11 -26 12 -26 26 -7 8 10
13 24 11 30 -2 5 2 16 10 23 7 8 11 18 8 23 -3 5 12 11 33 15 60 9 68 18 43
43 -18 18 -20 25 -10 43 10 19 8 25 -15 45 -26 22 -29 22 -63 8 -19 -8 -37
-15 -39 -15 -2 0 -4 -5 -4 -11 0 -21 -54 -59 -75 -53 -68 19 -122 47 -140 74
-20 30 -24 32 -77 33 -16 1 -28 4 -28 8 0 4 -9 5 -20 2 -11 -3 -20 0 -20 5 0
20 43 35 115 39 38 2 80 10 92 18 21 14 65 22 153 29 31 3 51 -1 64 -13 16
-13 18 -13 12 -1 -5 8 4 1 18 -17 15 -18 27 -36 27 -40 1 -4 5 -14 11 -20 7
-9 7 -13 -1 -13 -7 0 -10 -4 -7 -9 4 -5 1 -11 -6 -13 -9 -3 -9 -6 0 -12 7 -4
12 -2 12 3 0 6 6 11 13 11 22 0 47 35 47 66 0 13 9 15 49 11 87 -8 155 43 76
57 -32 6 -59 26 -36 26 6 0 11 4 11 8 0 4 -28 9 -62 10 -35 1 -79 4 -98 7 -19
2 -55 7 -80 11 -42 6 -70 9 -161 17 -40 4 -99 25 -99 37 0 4 -32 2 -71 -5 -79
-14 -96 -13 -186 6 -50 10 -71 10 -115 0 -55 -14 -98 -5 -98 19 0 6 -6 10 -14
10 -8 0 -21 8 -28 19 -30 43 -116 75 -165 62z"/>
</g>
</svg>
